<svg width="71" height="120" viewBox="0 0 71 120" fill="none" xmlns="http://www.w3.org/2000/svg">
<path d="M69.9997 35.7217C67.7202 44.1047 61.279 60.2085 54.1899 76.5826C47.5369 91.9495 40.3477 107.476 35.5726 116.937C34.0012 113.377 31.5245 108.012 28.5998 101.676C25.3603 94.6589 21.5713 86.451 17.8541 78.1866C13.9659 69.5422 10.1492 60.8212 7.09958 53.2906C4.06749 45.8033 1.82336 39.5633 1.00013 35.7488C1.0564 16.6301 16.4862 1.15821 35.5 1.15821C54.5049 1.15821 69.929 16.6155 69.9997 35.7217Z" fill="url(#paint0_linear_408_71894)" stroke="#29AAE3" stroke-width="2"/>
<path d="M25.2218 14.5777C25.7702 13.7547 27.0479 14.146 27.0479 15.1371L27.0479 22.7458L43.4823 36.8468C49.0667 41.6383 50.3729 49.7919 46.5662 56.0963L46.1528 56.781L44.8126 64.3275C44.6287 65.3627 43.1853 65.4501 42.8776 64.4445L40.7865 57.6111L22.7131 43.3967C16.5383 38.5404 15.1336 29.7195 19.4931 23.1762L25.2218 14.5777Z" fill="white"/>
<defs>
<linearGradient id="paint0_linear_408_71894" x1="35.5" y1="0.158203" x2="35.5" y2="119.281" gradientUnits="userSpaceOnUse">
<stop offset="0.00520833" stop-color="#29AAE3"/>
<stop offset="0.546875" stop-color="#6AA1FC"/>
</linearGradient>
</defs>
</svg>
