<svg width="42" height="27" viewBox="0 0 42 27" fill="none" xmlns="http://www.w3.org/2000/svg">
<g clip-path="url(#clip0_408_71915)">
<path d="M0 0H41.3V26.6H0V0Z" fill="white"/>
<path d="M0 2.49414H41.3V6.65039H0V2.49414Z" fill="#0038B8"/>
<path d="M0 19.9502H41.3V24.1064H0V19.9502Z" fill="#0038B8"/>
<path d="M20.6504 19.0588L18.7731 16.1794H15.0186L16.8958 13.2999L15.0186 10.4205H18.7731L20.6504 7.54102L22.5276 10.4205H26.2822L24.4049 13.2999L26.2822 16.1794H22.5276L20.6504 19.0588ZM19.9652 16.1794L20.6504 17.2301L21.3356 16.1794H19.9655H19.9652ZM23.1235 15.265H24.4935L23.8083 14.2143L23.1231 15.265H23.1235ZM19.3689 15.265H21.9314L23.2125 13.2999L21.9314 11.3348H19.3689L18.0879 13.2999L19.3689 15.265ZM16.8065 15.265H18.1765L17.4913 14.2143L16.8061 15.265H16.8065ZM23.1235 11.3345L23.8087 12.3852L24.4939 11.3345H23.1239H23.1235ZM16.8065 11.3345L17.4917 12.3852L18.1769 11.3345H16.8068H16.8065ZM19.9648 10.4201H21.3348L20.6496 9.36943L19.9644 10.4201H19.9648Z" fill="#0038B8"/>
</g>
<defs>
<clipPath id="clip0_408_71915">
<rect width="41.3" height="26.6" fill="white"/>
</clipPath>
</defs>
</svg>
