<svg width="42" height="27" viewBox="0 0 42 27" fill="none" xmlns="http://www.w3.org/2000/svg">
<g clip-path="url(#clip0_408_72979)">
<path d="M0 0H41.3V26.6H0V0Z" fill="#012169"/>
<path d="M4.81435 0.000407028L0.000369066 0.000406864L0.000369394 3.10424L36.4869 26.6006L41.3004 26.6006L41.3004 23.4963L4.81435 0.000407028Z" fill="white"/>
<path d="M41.3004 3.10473L41.3004 0.000895446L36.4864 0.000893902L0.000354383 23.4968L0.000354157 26.6011L4.81391 26.6011L41.3004 3.10473Z" fill="white"/>
<path d="M16.5205 0H24.7805V26.6H16.5205V0Z" fill="white"/>
<path d="M0 8.86719H41.3V17.7339H0V8.86719Z" fill="white"/>
<path d="M18.1719 0H23.1279V26.6H18.1719V0Z" fill="#C8102E"/>
<path d="M0 10.6406H41.3V15.9606H0V10.6406Z" fill="#C8102E"/>
<path d="M41.3005 26.6004V24.5321L30.7424 17.7334H27.5312L41.3005 26.6004Z" fill="#C8102E"/>
<path d="M0 0L1.21036e-07 2.06785L10.5576 8.86658L13.7684 8.86658L0 0Z" fill="#C8102E"/>
<path d="M24.7803 8.86658H27.5347L41.3001 0H38.0924L24.7803 8.57288V8.86658Z" fill="#C8102E"/>
<path d="M16.5203 17.7334H13.7667L0.00390625 26.5959V26.6004H3.20868L16.5203 18.028V17.7334Z" fill="#C8102E"/>
</g>
<defs>
<clipPath id="clip0_408_72979">
<rect width="41.3" height="26.6" fill="white"/>
</clipPath>
</defs>
</svg>
