<svg width="71" height="120" viewBox="0 0 71 120" fill="none" xmlns="http://www.w3.org/2000/svg">
<path d="M69.9997 35.7226C67.7202 44.1057 61.279 60.2095 54.1899 76.5836C47.5369 91.9504 40.3477 107.477 35.5726 116.938C34.0012 113.378 31.5245 108.013 28.5998 101.677C25.3603 94.6599 21.5713 86.452 17.8541 78.1876C13.9659 69.5432 10.1492 60.8222 7.09958 53.2916C4.06749 45.8042 1.82336 39.5643 1.00013 35.7498C1.0564 16.6311 16.4862 1.15918 35.5 1.15918C54.5049 1.15918 69.929 16.6164 69.9997 35.7226Z" fill="url(#paint0_linear_408_71717)" stroke="#0058C8" stroke-width="2"/>
<path d="M25.2218 14.5787C25.7702 13.7556 27.0479 14.147 27.0479 15.1381L27.0479 22.7467L43.4823 36.8478C49.0667 41.6393 50.3729 49.7929 46.5662 56.0973L46.1528 56.782L44.8126 64.3285C44.6287 65.3637 43.1853 65.451 42.8776 64.4455L40.7865 57.6121L22.7131 43.3977C16.5383 38.5414 15.1336 29.7205 19.4931 23.1772L25.2218 14.5787Z" fill="white"/>
<defs>
<linearGradient id="paint0_linear_408_71717" x1="35.5" y1="0.15918" x2="35.5" y2="119.282" gradientUnits="userSpaceOnUse">
<stop offset="0.00520833" stop-color="#29AAE3"/>
<stop offset="0.546875" stop-color="#6AA1FC"/>
</linearGradient>
</defs>
</svg>
