<svg version="1.2" xmlns="http://www.w3.org/2000/svg" viewBox="0 0 92 82" width="92" height="82"><style>.a{fill:#fff}.b{fill:#29aae3}</style><path fill-rule="evenodd" class="a" d="m77.9 35.2l4.1 4.6c3.2 4.3 4.1 9.4 5.1 14.7v0.5c0.4 1.7 0.4 3.5 0 5.2-0.3 1.3-1 2.5-2.1 3.3l-16.6 14c-0.6 0.5-1.5 0.7-2.3 0.4-1.6-0.7-3.1-1.7-4.3-2.9q-0.3-0.3-0.8-0.5l-24-7.1-0.2-0.1q-2.3-0.5-4.3-1.5-1.5-0.7-2.7-1.8c-0.6-0.6-1.1-1.4-1.4-2.2-0.1-0.4-0.1-0.9 0.1-1.3q0.4-0.7 1.2-1c0.9-0.5 2-0.8 3-0.8 1.7 0 4.1 0 6.1 0 1.4 0 3.1 0 4.5-0.1q0.2 0 0.4 0l2.1 2.6c0.7 0.8 1.8 0.9 2.6 0.2 0.8-0.6 0.9-1.8 0.2-2.6l-21.3-25.4c-2.1-2.5-2.4-4.8-1.7-6.5 0.2-0.6 0.6-1.2 1.1-1.6q0.8-0.6 1.8-0.9c1.8-0.4 4.1 0.3 6.1 2.8l12.2 14.5c0.7 0.8 1.8 0.9 2.6 0.3 0.8-0.7 0.9-1.8 0.2-2.6l-4.5-5.4q0.2-0.1 0.4-0.3l1.8-1.5c2.7-1.6 5.4 2 7.7 5.1 0.6 0.9 1.3 1.8 1.9 2.5l0.1 0.2c0.7 0.7 1.9 0.8 2.6 0.1 0.8-0.7 0.8-1.9 0.1-2.6q-0.9-1.1-1.8-2.3c-0.8-1.2-1.7-2.3-2.6-3.4q0.1-0.1 0.3-0.2l1.8-1.6c2.7-1.5 5.4 2 7.7 5.2 0.6 0.9 1.3 1.7 1.9 2.5 0.6 0.6 1.7 0.7 2.4 0.2 0.8-0.6 1-1.8 0.4-2.6q-0.9-1.1-1.8-2.3c-0.7-0.9-1.4-1.9-2.1-2.8l1.8-1.5c3.3-1.9 6.5 2 9.1 5.2zm-2.5 8.6q-0.1-0.1-0.1-0.2c-0.6-0.6-1.5-0.6-2.1 0-0.6 0.5-0.6 1.5-0.1 2.1l4.4 5.2c0.5 0.5 1.4 0.6 2 0.2 0.6-0.5 0.8-1.5 0.3-2.1zm-2.4 10.9l-6.3-7.6c-0.5-0.5-1.3-0.6-1.9-0.1-0.7 0.4-0.9 1.4-0.4 2l6.3 7.6c0.6 0.5 1.4 0.6 2 0.1 0.7-0.4 0.8-1.4 0.3-2z"/><path fill-rule="evenodd" class="b" d="m84.8 37.5q0 0 0.1 0.1c3.8 5 4.7 10.6 5.8 16.3l0.1 0.5c0.4 2.3 0.4 4.6-0.2 6.8-0.5 2-1.6 3.8-3.2 5.1l-16.6 14c-1.5 1.4-3.7 1.8-5.6 1.1-2.1-0.7-4-1.9-5.6-3.5l-23.6-7.1q-2.6-0.6-5.1-1.8c-1.4-0.6-2.6-1.5-3.7-2.6-1.1-1-1.8-2.3-2.3-3.7-0.4-1.3-0.2-2.7 0.4-3.9 0.6-1.1 1.5-2 2.6-2.5 1.5-0.8 3.1-1.2 4.8-1.2 1.4 0 3.8 0 6.1-0.1h1.9l-16.2-19.3c-3.1-3.7-3.5-7.4-2.3-10.3 1-2.3 3-4 5.4-4.5 3.1-0.7 6.7 0.3 9.8 3.9l5.4 6.4q0.1-0.2 0.3-0.3l1.9-1.6q0.2-0.2 0.4-0.3c2.2-1.5 5.2-1.4 7.3 0.4q0.2-0.4 0.5-0.7l1.9-1.6q0.2-0.1 0.4-0.2c3.1-1.9 5.6-1.1 7.8 0.7q0.1-0.1 0.2-0.2l2-1.6q0.1-0.1 0.3-0.2c6-3.6 10.3 1.7 13.8 6 1.7 2 3.4 3.9 5.2 5.9zm-2.8 2.3l-4.1-4.6-1.1-1.3c-2.6-3.2-5.8-7.1-9.1-5.2l-1.8 1.5c0.7 0.9 1.4 1.9 2.1 2.8q0.9 1.2 1.8 2.3c0.6 0.8 0.4 2-0.4 2.6-0.7 0.5-1.8 0.4-2.4-0.2-0.6-0.8-1.3-1.6-1.9-2.5-2.3-3.2-5-6.7-7.7-5.2l-1.8 1.6q-0.2 0.1-0.3 0.2c0.9 1.1 1.8 2.2 2.6 3.4q0.9 1.2 1.8 2.3c0.7 0.7 0.7 1.9-0.1 2.6-0.7 0.7-1.9 0.6-2.6-0.1l-0.1-0.2c-0.6-0.7-1.3-1.6-1.9-2.5-2.3-3.1-5-6.7-7.7-5.1l-1.8 1.5q-0.2 0.2-0.4 0.3l4.5 5.4c0.7 0.8 0.6 1.9-0.2 2.6-0.8 0.6-1.9 0.5-2.6-0.3l-12.2-14.5c-2-2.5-4.3-3.2-6.1-2.8q-1 0.3-1.8 0.9c-0.5 0.4-0.9 1-1.1 1.6-0.7 1.7-0.4 4 1.7 6.5l21.3 25.4c0.7 0.8 0.6 2-0.2 2.6-0.8 0.7-1.9 0.6-2.6-0.2l-2.1-2.6q-0.2 0-0.4 0c-1.4 0.1-3.1 0.1-4.5 0.1-2 0-4.4 0-6.1 0-1 0-2.1 0.3-3 0.8q-0.8 0.3-1.2 1c-0.2 0.4-0.2 0.9-0.1 1.3 0.3 0.8 0.8 1.6 1.4 2.2q1.2 1.1 2.7 1.8 2 1 4.3 1.5l0.2 0.1 24 7.1q0.5 0.2 0.8 0.5c1.2 1.2 2.7 2.2 4.3 2.9 0.8 0.3 1.7 0.1 2.3-0.4l16.6-14c1.1-0.8 1.8-2 2.1-3.3 0.4-1.7 0.4-3.5 0-5.2v-0.5c-1-5.3-1.9-10.4-5.1-14.7z"/><path class="b" d="m52.4 12.8c0.9 1 0.9 2.5-0.1 3.4q-0.1 0.1-0.2 0.2l-5.2 4.4c-1 0.8-2.5 0.5-3.3-0.5-0.8-1-0.7-2.4 0.2-3.2l5.2-4.4c1-0.9 2.5-0.8 3.4 0.1z"/><path class="b" d="m75.3 43.6q0.1 0.1 0.1 0.2l4.4 5.2c0.5 0.7 0.3 1.6-0.3 2.1-0.6 0.4-1.5 0.3-2-0.2l-4.4-5.2c-0.5-0.6-0.5-1.5 0.1-2.1 0.6-0.6 1.5-0.6 2.1 0z"/><path class="b" d="m32.3 0.4c1.3 0.2 2.2 1.3 2.2 2.5l-0.7 7.6c-0.1 1.3-1.3 2.3-2.7 2.1-1.2-0.1-2.1-1.2-2.1-2.5l0.7-7.6c0.1-1.3 1.3-2.2 2.6-2.1z"/><path class="b" d="m66.7 47.1l6.4 7.6c0.4 0.6 0.3 1.6-0.4 2-0.6 0.5-1.4 0.4-1.9-0.1l-6.3-7.6c-0.5-0.6-0.4-1.6 0.3-2 0.6-0.5 1.4-0.4 1.9 0.1z"/><path class="b" d="m18.4 12.5c0.9 1 0.9 2.5-0.1 3.4-0.9 0.9-2.4 0.9-3.3-0.1l-4.6-5.4c-0.8-1-0.6-2.6 0.5-3.3 1-0.8 2.3-0.7 3.2 0.2z"/><path class="b" d="m40.7 55z"/><path class="b" d="m10.5 26.3c1.3 0.2 2.2 1.4 2.1 2.7-0.2 1.3-1.3 2.2-2.6 2.1l-7.5-0.7c-1.4-0.1-2.3-1.2-2.2-2.6 0.1-1.3 1.3-2.3 2.6-2.1z"/><path class="b" d="m17.9 41.8c0.9 1 0.8 2.5-0.1 3.4q-0.1 0.1-0.2 0.2l-5.2 4.4c-1.1 0.8-2.6 0.5-3.4-0.5-0.7-1-0.6-2.4 0.3-3.2l5.2-4.4c0.9-0.9 2.5-0.8 3.4 0.1z"/></svg>