<svg width="112" height="116" viewBox="0 0 112 116" fill="none" xmlns="http://www.w3.org/2000/svg">
<path d="M88.9235 52.1915L92.9932 56.8262C96.2258 61.0968 97.1387 66.2372 98.0513 71.5087L98.1386 72.0191C98.5204 73.7413 98.5095 75.5214 98.1003 77.2333C97.7716 78.5152 97.0562 79.659 96.0428 80.5194L79.4257 94.4636C78.8048 95.0148 77.9279 95.1771 77.1393 94.8829C75.4851 94.2385 73.9867 93.2419 72.7539 91.9521C72.5569 91.7652 72.307 91.6227 72.0347 91.5493L47.9575 84.3744L47.7602 84.3186C46.2878 83.9744 44.8568 83.4646 43.4873 82.8128C42.489 82.3524 41.5757 81.7302 40.7789 80.96C40.1533 80.3579 39.6709 79.6157 39.3703 78.7913C39.254 78.3657 39.303 77.922 39.5109 77.5363C39.7963 77.0754 40.1994 76.707 40.6789 76.4656C41.6321 75.9877 42.6801 75.7422 43.7391 75.7491C45.3842 75.7371 47.7513 75.7129 49.8071 75.6882C51.2406 75.7229 52.8619 75.6706 54.3394 75.6382C54.4546 75.6321 54.5649 75.62 54.6702 75.6021L56.8354 78.1823C57.4845 78.9558 58.6395 79.0532 59.4047 78.411C60.17 77.7689 60.2746 76.6145 59.6255 75.841L38.2807 50.4046C36.1947 47.9188 35.8728 45.5627 36.5915 43.8729C36.8456 43.2672 37.2468 42.7293 37.7422 42.3035C38.2534 41.8846 38.8528 41.5828 39.4934 41.4377C41.2932 41.0243 43.5703 41.7296 45.6067 44.1563L57.83 58.7226C58.479 59.4961 59.6282 59.5984 60.3993 58.9513C61.1704 58.3043 61.2692 57.1548 60.6201 56.3813L56.0766 50.9669C56.23 50.8986 56.3626 50.8175 56.4812 50.7079L58.3119 49.1717C61.029 47.6161 63.676 51.2008 65.965 54.3111C66.6403 55.2235 67.286 56.1005 67.8905 56.8208L68.0441 57.0039C68.7461 57.7329 69.9018 57.7593 70.6224 57.064C71.3539 56.3697 71.3767 55.2135 70.6747 54.4845C70.0752 53.77 69.4881 52.9747 68.887 52.1509C68.055 51.0278 67.1765 49.8733 66.2797 48.8046C66.3896 48.7325 66.4897 48.6485 66.5799 48.5527L68.4105 47.0165C71.1277 45.4609 73.7746 49.0456 76.0636 52.1559C76.734 53.0624 77.3846 53.9453 77.9891 54.6657C78.6258 55.3288 79.6557 55.4205 80.3958 54.8799C81.2007 54.285 81.3753 53.1423 80.7733 52.3293C80.1738 51.6148 79.5867 50.8196 78.9857 49.9957C78.2954 49.0656 77.617 48.1256 76.8738 47.2399L78.728 45.684C82.0059 43.7685 85.219 47.6932 87.8137 50.8689L88.9235 52.1915ZM86.4164 60.7754C86.3777 60.7173 86.3331 60.6642 86.2826 60.616C85.7112 60.0188 84.7625 59.9999 84.1723 60.5757C83.5821 61.1514 83.572 62.0957 84.1384 62.687L88.5183 67.9066C89.0401 68.4447 89.8699 68.5131 90.4697 68.0803C91.1392 67.599 91.2853 66.6613 90.7963 65.995L86.4164 60.7754ZM84.0506 71.6556L77.7333 64.1274C77.2165 63.5952 76.3926 63.5219 75.7928 63.9547C75.1233 64.436 74.9772 65.3736 75.4553 66.039L81.7726 73.5672C82.2944 74.1054 83.1242 74.1738 83.724 73.7409C84.3934 73.2596 84.5395 72.322 84.0506 71.6556Z" fill="white"/>
<path d="M95.7518 54.4714C95.8023 54.5196 95.8469 54.5727 95.8856 54.6308C99.6734 59.6228 100.649 65.184 101.658 70.9176L101.752 71.4122C102.23 73.6674 102.188 75.9966 101.641 78.237C101.115 80.2281 99.9956 82.0024 98.423 83.3321L81.8176 97.2664C80.2887 98.6601 78.1207 99.1009 76.1588 98.4127C74.0806 97.6814 72.1833 96.4963 70.6132 94.9361L46.961 87.8372C45.2271 87.4206 43.5366 86.8166 41.9162 86.0332C40.5358 85.3804 39.2734 84.4976 38.1864 83.4175C37.144 82.3904 36.3625 81.1244 35.9143 79.7296C35.5237 78.4273 35.6556 77.0185 36.2831 75.8178C36.8954 74.7304 37.7964 73.8436 38.8999 73.2698C40.3865 72.4952 42.0317 72.1008 43.6975 72.1015C45.1239 72.0919 47.4743 72.0716 49.7597 72.0456L51.6578 72.0124L51.6875 72.0478L51.7346 72.0083L51.6578 72.0124L35.4757 52.7284C32.3741 49.0322 32.0206 45.2637 33.2202 42.4257C34.2039 40.1312 36.2111 38.4469 38.6357 37.8814C41.6624 37.1729 45.3299 38.1604 48.3721 41.7857L53.7727 48.2216C53.8716 48.0883 53.9745 47.9718 54.0981 47.8681L56.017 46.2578C56.123 46.1689 56.2388 46.0918 56.3587 46.0315C58.6128 44.4619 61.6378 44.6001 63.7419 46.3663C63.8608 46.1256 64.0213 45.9104 64.2215 45.7425L66.1404 44.1322C66.2464 44.0433 66.3622 43.9662 66.4821 43.9058C69.5937 42.0192 72.1332 42.7862 74.3311 44.6044C74.4026 44.5343 74.4733 44.4751 74.5489 44.4217L76.4678 42.8114C76.5738 42.7225 76.6896 42.6454 76.8095 42.585C82.791 38.9543 87.1173 44.2893 90.6218 48.5731C92.2965 50.5689 94.0301 52.5152 95.7518 54.4714ZM92.9933 56.8264L88.9236 52.1918L87.8137 50.8692C85.219 47.6934 82.0059 43.7688 78.728 45.6842L76.8738 47.2402C77.617 48.1258 78.2955 49.0658 78.9857 49.996C79.5868 50.8198 80.1739 51.6151 80.7734 52.3295C81.3754 53.1425 81.2007 54.2852 80.3959 54.8801C79.6558 55.4207 78.6259 55.329 77.9892 54.6659C77.3847 53.9456 76.7341 53.0627 76.0637 52.1562C73.7747 49.0459 71.1277 45.4612 68.4106 47.0168L66.5799 48.553C66.4898 48.6488 66.3897 48.7327 66.2797 48.8049C67.1765 49.8736 68.055 51.0281 68.8871 52.1511C69.4881 52.975 70.0752 53.7703 70.6748 54.4847C71.3768 55.2137 71.3539 56.37 70.6225 57.0643C69.9018 57.7595 68.7462 57.7332 68.0441 57.0041L67.8905 56.8211C67.286 56.1008 66.6404 55.2238 65.965 54.3114C63.6761 51.2011 61.0291 47.6164 58.3119 49.172L56.4813 50.7082C56.3626 50.8178 56.23 50.8989 56.0767 50.9672L60.6202 56.3816C61.2692 57.1551 61.1705 58.3045 60.3994 58.9516C59.6283 59.5987 58.485 59.4914 57.83 58.7229L45.6068 44.1566C43.5704 41.7298 41.2932 41.0245 39.4935 41.438C38.8529 41.5831 38.2535 41.8849 37.7423 42.3038C37.2469 42.7295 36.8457 43.2675 36.5915 43.8731C35.8729 45.5629 36.1948 47.919 38.2807 50.4048L59.6256 75.8413C60.2747 76.6147 60.1759 77.7642 59.4048 78.4113C58.6337 79.0583 57.4846 78.9561 56.8355 78.1826L54.6703 75.6023C54.565 75.6203 54.4547 75.6323 54.3395 75.6384C52.8619 75.6708 51.2407 75.7232 49.8072 75.6885C47.7514 75.7131 45.3842 75.7373 43.7392 75.7493C42.6801 75.7425 41.6322 75.9879 40.679 76.4658C40.1994 76.7072 39.7964 77.0757 39.511 77.5365C39.3031 77.9223 39.254 78.3659 39.3704 78.7915C39.671 79.6159 40.1534 80.3582 40.779 80.9602C41.5758 81.7305 42.4891 82.3526 43.4873 82.813C44.8569 83.4649 46.2878 83.9747 47.7603 84.3188L47.9576 84.3746L72.0348 91.5496C72.307 91.623 72.557 91.7654 72.7539 91.9523C73.9868 93.2422 75.4851 94.2388 77.1394 94.8832C77.9279 95.1774 78.8049 95.015 79.4257 94.4639L96.0429 80.5197C97.0562 79.6592 97.7717 78.5155 98.1003 77.2335C98.5096 75.5216 98.5205 73.7415 98.1386 72.0193L98.0514 71.5089C97.1388 66.2374 96.2259 61.097 92.9933 56.8264Z" fill="#29AAE3"/>
<path d="M63.4196 29.8332C64.3247 30.8043 64.2869 32.3253 63.3191 33.228C63.2534 33.2932 63.1828 33.3524 63.1072 33.4058L57.9213 37.7575C56.8643 38.554 55.3598 38.3272 54.5665 37.2622C53.8366 36.2849 53.9491 34.9126 54.8345 34.079L60.0204 29.7273C60.9882 28.8246 62.5085 28.867 63.4196 29.8332Z" fill="#29AAE3"/>
<path d="M86.2825 60.6162C86.333 60.6644 86.3776 60.7175 86.4163 60.7756L90.7962 65.9952C91.2852 66.6615 91.1391 67.5992 90.4696 68.0804C89.8698 68.5133 89.04 68.4449 88.5182 67.9068L84.1383 62.6872C83.5719 62.0959 83.582 61.1516 84.1722 60.5759C84.7624 60.0001 85.7111 60.019 86.2825 60.6162Z" fill="#29AAE3"/>
<path d="M43.3373 17.4237C44.597 17.5741 45.5244 18.6674 45.4539 19.9341L44.8017 27.5249C44.6555 28.8449 43.4603 29.7875 42.1414 29.6264C40.8876 29.4711 39.9601 28.3778 40.0199 27.1102L40.672 19.5194C40.829 18.2003 42.0184 17.2626 43.3373 17.4237Z" fill="#29AAE3"/>
<path d="M77.733 64.128L84.0503 71.6562C84.5392 72.3226 84.3931 73.2602 83.7237 73.7415C83.1239 74.1744 82.2941 74.106 81.7723 73.5678L75.455 66.0396C74.9769 65.3742 75.123 64.4366 75.7925 63.9553C76.3923 63.5224 77.2162 63.5958 77.733 64.128Z" fill="#29AAE3"/>
<path d="M29.4388 29.5403C30.3499 30.5065 30.3121 32.0274 29.3492 32.9361C28.3813 33.8388 26.8611 33.7964 25.95 32.8302L21.4065 27.4158C20.6132 26.3508 20.8353 24.8463 21.8973 24.0558C22.8719 23.3285 24.2379 23.45 25.0737 24.3385L29.4388 29.5403Z" fill="#29AAE3"/>
<path d="M51.734 72.0086L51.687 72.0481L51.6572 72.0127L51.734 72.0086Z" fill="#29AAE3"/>
<path d="M21.4803 43.3429C22.8041 43.5099 23.7331 44.7126 23.5711 46.0258C23.4197 47.2798 22.314 48.1976 21.0477 48.1232L13.459 47.4477C12.1423 47.325 11.1721 46.1569 11.2857 44.8339C11.4102 43.5119 12.5748 42.5448 13.8915 42.6674L21.4803 43.3429Z" fill="#29AAE3"/>
<path d="M28.8707 58.8449C29.7759 59.816 29.7381 61.337 28.7702 62.2397C28.7046 62.3049 28.6339 62.3642 28.5583 62.4175L23.3725 66.7692C22.3154 67.5657 20.811 67.3389 20.0177 66.2739C19.2878 65.2966 19.4002 63.9243 20.2857 63.0907L25.4716 58.739C26.4394 57.8363 27.9597 57.8788 28.8707 58.8449Z" fill="#29AAE3"/>
</svg>
