<svg width="42" height="46" viewBox="0 0 42 46" fill="none" xmlns="http://www.w3.org/2000/svg">
<g clip-path="url(#clip0_408_71886)">
<path d="M20.9929 27.317C27.6617 27.317 33.0879 21.3389 33.0879 13.992C33.0879 6.64504 27.6617 0.666992 20.9929 0.666992C14.3241 0.666992 8.89789 6.64504 8.89789 13.992C8.89789 21.3389 14.3241 27.317 20.9929 27.317ZM20.9929 5.10866C25.4409 5.10866 29.0562 9.09159 29.0562 13.992C29.0562 18.8924 25.4409 22.8753 20.9929 22.8753C16.5448 22.8753 12.9296 18.8924 12.9296 13.992C12.9296 9.09159 16.5448 5.10866 20.9929 5.10866Z" fill="#2AA9E3"/>
<path d="M2.85004 45.0833C3.70925 45.0833 4.50236 44.4717 4.77334 43.5251C5.57967 40.6781 6.90814 38.9961 9.22139 37.9039C11.7065 36.7316 15.335 36.2073 20.9925 36.2073C26.6501 36.2073 30.2786 36.7316 32.7637 37.9039C35.0769 38.9961 36.4054 40.6781 37.2117 43.5251C37.5422 44.6974 38.6724 45.3528 39.7365 44.9887C40.8006 44.6246 41.3954 43.3795 41.0649 42.2072C40.4899 40.1684 39.6836 38.5155 38.5931 37.1393C37.4761 35.7267 36.0948 34.6418 34.3565 33.8263C31.3493 32.3991 27.2251 31.7656 20.9925 31.7656C14.76 31.7656 10.6424 32.3991 7.62856 33.8263C5.89692 34.6491 4.50897 35.7267 3.392 37.1393C2.30147 38.5155 1.49514 40.1757 0.920128 42.2072C0.589664 43.3795 1.1845 44.6246 2.24859 44.9887C2.44687 45.0542 2.65176 45.0906 2.85004 45.0906V45.0833Z" fill="#2AA9E3"/>
</g>
<defs>
<clipPath id="clip0_408_71886">
<rect width="40.3167" height="44.4167" fill="white" transform="matrix(-1 0 0 1 41.1504 0.666992)"/>
</clipPath>
</defs>
</svg>
